<svg width="99" height="20" viewBox="0 0 99 20" fill="none" xmlns="http://www.w3.org/2000/svg">
<g id="secure-white 1" clip-path="url(#clip0_1_83639)">
<g id="Tutorial">
<path id="Vector" d="M9.54874 19.5H9.44963C9.35815 19.4775 0.0574917 18.1059 0.499654 4.67477C0.511033 4.5178 0.572378 4.36833 0.674995 4.24755C0.835088 4.03769 2.4284 2.24637 9.36578 0.500016C9.48837 0.469559 9.61674 0.469559 9.73933 0.500016C16.6691 2.22388 18.2624 4.0152 18.4225 4.24755C18.5226 4.3743 18.5787 4.52931 18.5826 4.68976C19.04 18.0984 9.74695 19.4775 9.64784 19.4925L9.54874 19.5ZM2.02435 4.99706C1.76515 16.1422 8.57293 17.7836 9.54112 17.9635C10.5245 17.8136 17.3323 16.1647 17.0655 4.99706C16.5624 4.58483 14.6793 3.29568 9.54874 1.99903C4.441 3.31067 2.55037 4.59232 2.02435 4.99706Z" fill="white"/>
<path id="Vector_2" d="M8.43488 12.4921C8.33455 12.4927 8.23509 12.4738 8.14221 12.4365C8.04933 12.3992 7.96485 12.3442 7.89361 12.2748L6.10972 10.5359C6.02636 10.4693 5.95825 10.3861 5.90986 10.2919C5.86147 10.1976 5.8339 10.0943 5.82894 9.98882C5.82398 9.88333 5.84175 9.778 5.88109 9.67974C5.92042 9.58147 5.98044 9.49249 6.0572 9.41862C6.13396 9.34474 6.22573 9.28765 6.32649 9.25109C6.42726 9.21452 6.53475 9.1993 6.64192 9.20643C6.74909 9.21355 6.85351 9.24286 6.94835 9.29244C7.0432 9.34201 7.12631 9.41073 7.19225 9.49409L8.43488 10.7233L11.9341 7.28305C12.0776 7.14191 12.2723 7.06262 12.4753 7.06262C12.6783 7.06262 12.873 7.14191 13.0166 7.28305C13.1602 7.42418 13.2408 7.6156 13.2408 7.8152C13.2408 8.01479 13.1602 8.20621 13.0166 8.34735L9.00664 12.2898C8.93055 12.3602 8.84052 12.4146 8.74216 12.4494C8.6438 12.4842 8.53921 12.4987 8.43488 12.4921Z" fill="white"/>
</g>
<path id="Vector_3" d="M30.1552 6.93827V7.77022H26.4959V6.93827H27.8376V3.14576C27.8376 2.99586 27.8376 2.83847 27.8376 2.68107L26.9 3.49803C26.8519 3.53882 26.7942 3.56716 26.7322 3.58048C26.6843 3.58804 26.6354 3.58804 26.5874 3.58048C26.5381 3.56353 26.4937 3.53526 26.4578 3.49803C26.4248 3.47906 26.3963 3.45353 26.3739 3.42308L26.0156 2.9434L28.0358 1.24951H28.9659V6.93827H30.1552Z" fill="white"/>
<path id="Vector_4" d="M36.1704 4.5173C36.1809 5.02292 36.1193 5.52748 35.9875 6.01631C35.8844 6.39082 35.7083 6.74208 35.4691 7.05063C35.2707 7.31447 35.0087 7.52567 34.7067 7.66523C34.4038 7.79509 34.0766 7.86145 33.7461 7.8601C33.4156 7.86212 33.0883 7.79572 32.7856 7.66523C32.4831 7.52648 32.2209 7.31513 32.0232 7.05063C31.7843 6.74293 31.6106 6.39121 31.5125 6.01631C31.3806 5.52748 31.319 5.02292 31.3295 4.5173C31.3179 4.01163 31.3795 3.50691 31.5125 3.01828C31.6102 2.64923 31.7812 2.30281 32.0156 1.99896C32.2133 1.73446 32.4754 1.52311 32.778 1.38436C33.0801 1.25281 33.4082 1.18882 33.7385 1.19698C34.0693 1.19288 34.397 1.25937 34.6991 1.39185C35.0011 1.53141 35.2631 1.74262 35.4614 2.00645C35.7007 2.315 35.8767 2.66627 35.9798 3.04077C36.1132 3.52178 36.1774 4.01879 36.1704 4.5173ZM35.004 4.5173C35.0104 4.12495 34.9747 3.73303 34.8973 3.34807C34.851 3.08328 34.7554 2.82918 34.6152 2.59856C34.5216 2.43305 34.3813 2.2977 34.2112 2.20882C34.0642 2.13789 33.9023 2.10195 33.7385 2.10389C33.5786 2.1081 33.4219 2.14917 33.2811 2.22381C33.1133 2.31316 32.9756 2.44857 32.8847 2.61355C32.7445 2.84417 32.6489 3.09827 32.6026 3.36306C32.5344 3.74395 32.5063 4.13074 32.5188 4.5173C32.5103 4.90937 32.5435 5.30124 32.6179 5.68653C32.6641 5.95131 32.7598 6.20541 32.8999 6.43604C32.9908 6.60101 33.1286 6.73643 33.2964 6.82578C33.4443 6.894 33.6056 6.9298 33.769 6.93071C33.9324 6.9291 34.0935 6.89333 34.2417 6.82578C34.4118 6.73689 34.5521 6.60154 34.6457 6.43604C34.7859 6.20541 34.8815 5.95131 34.9278 5.68653C34.9949 5.30051 35.0205 4.90859 35.004 4.5173Z" fill="white"/>
<path id="Vector_5" d="M41.8415 4.51735C41.852 5.02297 41.7904 5.52754 41.6586 6.01637C41.5555 6.39087 41.3794 6.74214 41.1402 7.05068C40.9418 7.31452 40.6798 7.52572 40.3778 7.66528C40.0614 7.79264 39.7208 7.85144 39.3791 7.83767C39.0486 7.83969 38.7213 7.77329 38.4186 7.64279C38.1179 7.50116 37.8564 7.29034 37.6562 7.0282C37.4224 6.71846 37.2516 6.36727 37.1531 5.99388C37.0213 5.50505 36.9597 5.00048 36.9701 4.49487C36.9585 3.98919 37.0202 3.48447 37.1531 2.99585C37.263 2.63396 37.4415 2.29575 37.6791 1.99901C37.8793 1.73687 38.1408 1.52604 38.4415 1.38441C38.7366 1.25609 39.0565 1.19217 39.3791 1.19704C39.7099 1.19294 40.0376 1.25942 40.3397 1.39191C40.6417 1.53147 40.9037 1.74267 41.1021 2.0065C41.3576 2.31137 41.5493 2.66288 41.6662 3.04082C41.7944 3.52255 41.8534 4.01954 41.8415 4.51735ZM40.6751 4.51735C40.6816 4.125 40.6458 3.73308 40.5684 3.34812C40.5221 3.08334 40.4265 2.82924 40.2863 2.59861C40.1927 2.43311 40.0524 2.29776 39.8823 2.20887C39.7248 2.13836 39.5519 2.10745 39.3791 2.11893C39.2153 2.11613 39.0532 2.15212 38.9065 2.22386C38.7387 2.31321 38.6009 2.44863 38.5101 2.6136C38.3699 2.84423 38.2743 3.09833 38.228 3.36311C38.1536 3.7484 38.1204 4.14027 38.1289 4.53234C38.1204 4.92441 38.1536 5.31629 38.228 5.70157C38.2743 5.96636 38.3699 6.22046 38.5101 6.45108C38.6009 6.61606 38.7387 6.75147 38.9065 6.84082C39.0545 6.90904 39.2157 6.94484 39.3791 6.94575C39.5425 6.94414 39.7036 6.90837 39.8518 6.84082C40.0219 6.75194 40.1622 6.61659 40.2559 6.45108C40.396 6.22046 40.4917 5.96636 40.5379 5.70157C40.6266 5.31279 40.6726 4.91578 40.6751 4.51735Z" fill="white"/>
<path id="Vector_6" d="M45.8444 2.83852C45.8464 3.06711 45.8023 3.29382 45.7148 3.50558C45.6386 3.69351 45.5245 3.86433 45.3793 4.00775C45.2415 4.14768 45.0753 4.25749 44.8914 4.33004C44.7076 4.40428 44.5108 4.44247 44.312 4.44247C44.1033 4.44426 43.8961 4.40608 43.7022 4.33004C43.5097 4.26121 43.3352 4.15112 43.1914 4.00775C43.0602 3.85923 42.9616 3.68574 42.9017 3.49809C42.8231 3.28431 42.7843 3.05833 42.7874 2.83103C42.7837 2.59878 42.8224 2.36777 42.9017 2.14898C42.9683 1.96106 43.0738 1.78877 43.2116 1.643C43.3494 1.49722 43.5164 1.38112 43.7022 1.30203C44.0945 1.15225 44.5296 1.15225 44.9219 1.30203C45.1057 1.37814 45.2717 1.49036 45.4098 1.63182C45.5512 1.781 45.6602 1.95697 45.73 2.14898C45.8102 2.37013 45.849 2.60376 45.8444 2.83852ZM48.0476 1.44444C48.0878 1.39654 48.1338 1.35374 48.1848 1.31702C48.2512 1.27596 48.3274 1.2527 48.4059 1.24957H49.2292L44.3197 7.59789C44.2835 7.64734 44.2366 7.6883 44.1824 7.71781C44.1137 7.75853 44.0337 7.77689 43.9537 7.77028H43.1152L48.0476 1.44444ZM44.9982 2.83852C45.0021 2.69183 44.9841 2.54536 44.9448 2.40381C44.9153 2.30072 44.8661 2.20407 44.8 2.11899C44.7335 2.06318 44.6554 2.02225 44.5712 1.99907C44.4038 1.93954 44.2203 1.93954 44.0529 1.99907C43.9756 2.03621 43.9078 2.09002 43.8546 2.15647C43.7889 2.24077 43.7421 2.33786 43.7174 2.44128C43.6781 2.58284 43.6601 2.72931 43.6641 2.876C43.6595 3.01778 43.6775 3.15939 43.7174 3.29572C43.7431 3.39651 43.7898 3.49095 43.8546 3.57304C43.9065 3.63711 43.975 3.68629 44.0529 3.71544C44.2203 3.77498 44.4038 3.77498 44.5712 3.71544C44.6513 3.68649 44.7223 3.63739 44.7771 3.57304C44.8418 3.48985 44.8909 3.39592 44.9219 3.29572C44.9659 3.14739 44.984 2.99279 44.9753 2.83852H44.9982ZM49.5723 6.24128C49.5767 6.46937 49.5352 6.69606 49.4503 6.90834C49.3704 7.09615 49.2538 7.26675 49.1072 7.41051C48.9708 7.55208 48.8042 7.66215 48.6193 7.7328C48.4355 7.80704 48.2387 7.84523 48.0399 7.84523C47.8311 7.84702 47.624 7.80884 47.4301 7.7328C47.2485 7.66013 47.0848 7.55026 46.9498 7.41051C46.8101 7.26574 46.7013 7.09502 46.6296 6.90834C46.551 6.69457 46.5122 6.46859 46.5152 6.24128C46.5123 6.00664 46.5509 5.77329 46.6296 5.55174C46.6994 5.35973 46.8084 5.18376 46.9498 5.03458C47.0874 4.89785 47.2504 4.78843 47.4301 4.71229C47.624 4.63625 47.8311 4.59807 48.0399 4.59986C48.2488 4.59729 48.4561 4.6355 48.6498 4.71229C48.8331 4.7858 48.9992 4.89549 49.1377 5.03458C49.2791 5.18376 49.3881 5.35973 49.4579 5.55174C49.5391 5.77284 49.5804 6.0062 49.5799 6.24128H49.5723ZM48.6956 6.24128C48.6983 6.09261 48.6829 5.94416 48.6498 5.79907C48.6276 5.69981 48.5862 5.60567 48.5278 5.52176C48.4732 5.45052 48.3992 5.39595 48.3144 5.36436C48.2313 5.33471 48.1436 5.31949 48.0552 5.31939C47.9692 5.31838 47.8838 5.33365 47.8036 5.36436C47.7188 5.39595 47.6448 5.45052 47.5902 5.52176C47.5291 5.60509 47.4851 5.69927 47.4605 5.79907C47.4246 5.9438 47.4067 6.0923 47.4072 6.24128C47.4065 6.38287 47.4244 6.52395 47.4605 6.66101C47.4866 6.76029 47.5305 6.8542 47.5902 6.93832C47.6477 7.00297 47.7212 7.052 47.8036 7.08073C47.8838 7.11144 47.9692 7.12671 48.0552 7.1257C48.1436 7.1256 48.2313 7.11038 48.3144 7.08073C48.3968 7.052 48.4703 7.00297 48.5278 6.93832C48.59 6.85466 48.6365 6.76075 48.6651 6.66101C48.6957 6.52324 48.7085 6.38221 48.7032 6.24128H48.6956Z" fill="white"/>
<path id="Vector_7" d="M57.142 2.44869C57.1167 2.5028 57.0772 2.54934 57.0277 2.5836C56.9834 2.61493 56.9297 2.63076 56.8752 2.62857C56.8017 2.62458 56.7306 2.60129 56.6694 2.56111L56.4025 2.40372C56.2861 2.33958 56.1635 2.28686 56.0366 2.24632C55.73 2.16148 55.4055 2.16148 55.0989 2.24632C54.9786 2.28072 54.867 2.33943 54.7711 2.41871C54.6888 2.48835 54.6236 2.57549 54.5805 2.67354C54.5325 2.77693 54.509 2.8897 54.5119 3.00332C54.507 3.1432 54.556 3.27974 54.6491 3.38557C54.7432 3.49603 54.8601 3.58546 54.9922 3.6479C55.1506 3.72256 55.3136 3.78764 55.4801 3.84277L56.0442 4.02265C56.2348 4.09011 56.4254 4.16506 56.6084 4.2475C56.7866 4.3302 56.951 4.43885 57.0963 4.56979C57.2416 4.70592 57.3582 4.86894 57.4393 5.04948C57.534 5.26704 57.5782 5.50257 57.5689 5.73902C57.5736 6.02101 57.5218 6.30115 57.4165 6.56348C57.3187 6.81587 57.1651 7.04373 56.9667 7.23054C56.7648 7.43098 56.52 7.58461 56.2501 7.68025C55.9386 7.79635 55.6073 7.85233 55.2743 7.84514C55.0563 7.84768 54.8388 7.82504 54.6263 7.77768C54.4228 7.73964 54.2236 7.6819 54.0316 7.6053C53.8487 7.53039 53.6727 7.44011 53.5056 7.33547C53.3572 7.23415 53.2216 7.1159 53.1016 6.9832L53.4599 6.40608C53.4912 6.36183 53.5331 6.3258 53.5818 6.30115C53.627 6.27168 53.6801 6.25603 53.7343 6.25618C53.8232 6.26044 53.9085 6.29188 53.9783 6.34612C54.0697 6.41358 54.1765 6.48103 54.2985 6.55599C54.433 6.63819 54.5761 6.70603 54.7254 6.75835C54.914 6.82275 55.1128 6.85322 55.3124 6.84829C55.6122 6.87074 55.9102 6.78552 56.151 6.60845C56.2477 6.51855 56.3231 6.40883 56.3718 6.28707C56.4206 6.16531 56.4415 6.0345 56.433 5.90391C56.4431 5.75318 56.397 5.60399 56.3034 5.48419C56.2118 5.3694 56.0944 5.27705 55.9604 5.21437C55.7985 5.12415 55.6273 5.05128 55.4496 4.99701L54.8931 4.83212C54.7028 4.77203 54.5169 4.69941 54.3366 4.61476C54.1642 4.53938 54.0048 4.43825 53.8639 4.31496C53.7163 4.16911 53.5997 3.99587 53.5209 3.80529C53.4288 3.56604 53.3848 3.31151 53.3913 3.05579C53.3908 2.81859 53.4401 2.58385 53.5361 2.36624C53.6327 2.14028 53.7754 1.9362 53.9554 1.76664C54.1497 1.58772 54.3775 1.4477 54.6263 1.35441C54.9153 1.24432 55.2235 1.19085 55.5335 1.19701C55.8991 1.19443 56.2625 1.25272 56.6084 1.3694C56.9231 1.4803 57.2111 1.6538 57.4546 1.87906L57.142 2.44869Z" fill="white"/>
<path id="Vector_8" d="M60.2448 2.22387V4.03018H62.5318V4.99705H60.2448V6.80336H63.1798V7.77022H59.0098V1.24951H63.1798V2.22387H60.2448Z" fill="white"/>
<path id="Vector_9" d="M69.0346 6.23376C69.0677 6.23256 69.1006 6.23866 69.131 6.25164C69.1613 6.26461 69.1883 6.28411 69.21 6.30871L69.6979 6.82587C69.431 7.14774 69.0917 7.40431 68.7068 7.57538C68.2602 7.75705 67.7796 7.84389 67.2965 7.83021C66.8419 7.83659 66.3907 7.75246 65.97 7.58287C65.5919 7.42735 65.2515 7.1949 64.9713 6.90082C64.6859 6.59586 64.4678 6.23602 64.3309 5.84402C64.1774 5.41571 64.1025 4.96397 64.1099 4.50989C64.1031 4.05213 64.1832 3.59714 64.3462 3.16828C64.4942 2.77846 64.7232 2.42321 65.0185 2.12513C65.3138 1.82705 65.669 1.59268 66.0615 1.43692C66.4783 1.27321 66.9239 1.19172 67.3727 1.19707C67.8113 1.18744 68.2473 1.26653 68.6535 1.42942C69.0076 1.57442 69.3328 1.77997 69.614 2.03652L69.2024 2.59865C69.1732 2.63477 69.14 2.66746 69.1033 2.69609C69.0538 2.71265 69.0002 2.71265 68.9508 2.69609C68.9035 2.70962 68.8532 2.70962 68.8059 2.69609L68.6458 2.60615L68.4476 2.47873C68.3623 2.43147 68.273 2.39135 68.1808 2.35881C68.0673 2.31552 67.9499 2.2829 67.8301 2.26137C67.679 2.23649 67.526 2.22395 67.3727 2.2239C67.0927 2.2202 66.8149 2.2738 66.557 2.3813C66.312 2.47837 66.0948 2.63273 65.9243 2.831C65.7362 3.05042 65.5961 3.30555 65.5126 3.58051C65.4099 3.89262 65.3609 4.2194 65.3677 4.54737C65.3619 4.87892 65.4161 5.20885 65.5278 5.52173C65.6133 5.799 65.7589 6.05473 65.9548 6.27124C66.1296 6.46487 66.3456 6.61838 66.5875 6.72094C66.8281 6.82384 67.0875 6.87739 67.3499 6.87834C67.5022 6.8868 67.6549 6.8868 67.8073 6.87834C67.9338 6.86046 68.0587 6.83289 68.1808 6.79589C68.2951 6.75411 68.4049 6.70139 68.5086 6.63849C68.6161 6.57148 68.718 6.4963 68.8136 6.41364L68.905 6.34619C68.9344 6.29561 68.98 6.25606 69.0346 6.23376Z" fill="white"/>
<path id="Vector_10" d="M73.5706 6.79586C73.7899 6.79669 74.0074 6.75597 74.211 6.67594C74.3917 6.60228 74.5533 6.48956 74.6837 6.34616C74.8179 6.19857 74.9192 6.02494 74.981 5.83649C75.0507 5.61833 75.0841 5.39056 75.0801 5.16194V1.24951H76.3151V5.14695C76.3158 5.51242 76.2513 5.87518 76.1245 6.21874C76.0022 6.53489 75.8154 6.82311 75.5756 7.06568C75.3328 7.3116 75.039 7.50331 74.7142 7.62781C73.9747 7.88745 73.1666 7.88745 72.4271 7.62781C72.1014 7.50503 71.8072 7.31309 71.5657 7.06568C71.3234 6.82505 71.1363 6.53628 71.0168 6.21874C70.89 5.87518 70.8255 5.51242 70.8262 5.14695V1.24951H72.0612V5.15444C72.0572 5.38307 72.0906 5.61084 72.1603 5.829C72.2221 6.01966 72.3234 6.19572 72.4576 6.34616C72.588 6.48956 72.7495 6.60228 72.9303 6.67594C73.1339 6.75597 73.3513 6.79669 73.5706 6.79586Z" fill="white"/>
<path id="Vector_11" d="M83.2295 7.77017H82.1241C82.0317 7.77669 81.9393 7.75682 81.8582 7.71293C81.777 7.66905 81.7105 7.60303 81.6666 7.52283L80.2715 5.4392C80.2276 5.37359 80.1706 5.31748 80.1038 5.27431C80.0141 5.23981 79.918 5.22448 79.8218 5.22934H79.2957V7.77017H78.0684V1.24946H80.0886C80.4768 1.24257 80.8641 1.28797 81.2397 1.38437C81.5161 1.46692 81.7746 1.59906 82.0021 1.77411C82.2027 1.93059 82.36 2.13422 82.4595 2.36623C82.5555 2.60482 82.6046 2.85914 82.6043 3.11573C82.6074 3.32467 82.5739 3.53257 82.5052 3.73033C82.4422 3.92199 82.3468 4.10187 82.2232 4.26248C82.0955 4.42639 81.9409 4.56824 81.7658 4.6822C81.5736 4.80825 81.3627 4.90432 81.1406 4.96701C81.2203 5.01085 81.2945 5.06367 81.3617 5.12441C81.4326 5.18824 81.4941 5.26138 81.5447 5.34177L83.2295 7.77017ZM80.0657 4.35991C80.2727 4.36393 80.4789 4.33352 80.6756 4.26997C80.8324 4.22178 80.9777 4.14273 81.1025 4.03763C81.2117 3.93841 81.2953 3.8151 81.3465 3.67786C81.4028 3.53444 81.4312 3.3819 81.4303 3.22816C81.4367 3.08701 81.4105 2.94628 81.3538 2.81648C81.297 2.68669 81.2111 2.5712 81.1025 2.47865C80.8033 2.28339 80.4468 2.19114 80.0886 2.21632H79.3262V4.35991H80.0657Z" fill="white"/>
<path id="Vector_12" d="M85.5563 7.77022H84.3594V1.24951H85.5944L85.5563 7.77022Z" fill="white"/>
<path id="Vector_13" d="M91.9828 2.26135H89.9931V7.77022H88.7581V2.26135H86.7988V1.24951H91.9828V2.26135Z" fill="white"/>
<path id="Vector_14" d="M96.0915 5.25186V7.77021H94.8641V5.25186L92.4551 1.2495H93.5071C93.5975 1.24298 93.6872 1.26969 93.7587 1.32445C93.8263 1.37674 93.881 1.44335 93.9188 1.51932L95.1309 3.69289C95.2021 3.81781 95.2631 3.93773 95.3139 4.05265L95.4587 4.39743C95.4968 4.285 95.5426 4.17257 95.596 4.05265C95.6493 3.93273 95.7027 3.82031 95.7713 3.69289L96.9758 1.51932C97.0107 1.4479 97.0631 1.3861 97.1283 1.33944C97.1976 1.2793 97.2875 1.24716 97.3799 1.2495H98.47L96.0915 5.25186Z" fill="white"/>
<path id="Vector_15" d="M31.6111 15.1978V17.8286C31.2878 18.0674 30.9238 18.2476 30.5362 18.3608C30.1404 18.4768 29.7294 18.5348 29.3164 18.5332C28.8172 18.5403 28.3209 18.4565 27.8527 18.2858C27.4347 18.1345 27.0532 17.8997 26.732 17.5963C26.42 17.3005 26.1758 16.9428 26.0154 16.547C25.685 15.6821 25.685 14.7286 26.0154 13.8637C26.1668 13.4705 26.4005 13.113 26.7016 12.8144C27.0081 12.5129 27.3774 12.2802 27.7841 12.1324C28.2389 11.9611 28.7228 11.8772 29.2097 11.885C29.4654 11.8833 29.7207 11.9059 29.972 11.9525C30.1933 11.9885 30.4104 12.0463 30.62 12.1249C30.8128 12.1909 30.997 12.279 31.1689 12.3872C31.3286 12.4921 31.479 12.6099 31.6187 12.7395L31.268 13.2866C31.2196 13.3636 31.1433 13.4198 31.0546 13.444C31.0042 13.4543 30.9521 13.4537 30.9021 13.442C30.852 13.4303 30.8052 13.408 30.7649 13.3765L30.4599 13.2117C30.3547 13.1485 30.2421 13.0982 30.1245 13.0618C29.9903 13.0162 29.8527 12.9811 29.7128 12.9568C29.5365 12.9281 29.3579 12.9155 29.1792 12.9193C28.8767 12.9138 28.5761 12.9673 28.2949 13.0767C28.0363 13.1801 27.8046 13.3388 27.6164 13.5414C27.4232 13.7598 27.2779 14.0149 27.1895 14.2909C27.081 14.5941 27.0294 14.9141 27.037 15.2353C27.0252 15.5758 27.0742 15.9158 27.1818 16.2397C27.2778 16.5189 27.4338 16.7745 27.6392 16.9892C27.8382 17.1931 28.0802 17.3518 28.3482 17.4539C28.6454 17.5644 28.9606 17.6203 29.2783 17.6188C29.4996 17.6205 29.7202 17.5928 29.9339 17.5363C30.1281 17.4868 30.317 17.419 30.4981 17.3339V16.1122H29.6671C29.6323 16.1146 29.5974 16.1098 29.5646 16.0982C29.5318 16.0866 29.5018 16.0684 29.4765 16.0448C29.4375 16.0013 29.4158 15.9454 29.4155 15.8874V15.1978H31.6111Z" fill="white"/>
<path id="Vector_16" d="M37.6571 17.4838C37.8759 17.487 38.0933 17.4489 38.2975 17.3714C38.4767 17.295 38.6377 17.1827 38.7701 17.0416C38.8992 16.8888 38.9975 16.7133 39.0598 16.5245C39.1334 16.307 39.1695 16.079 39.1666 15.8499V11.96H40.3939V15.8499C40.3998 16.2158 40.3351 16.5794 40.2034 16.9217C40.0867 17.241 39.9021 17.5323 39.6621 17.7761C39.4175 18.0181 39.124 18.207 38.8006 18.3308C38.0626 18.5987 37.2516 18.5987 36.5136 18.3308C36.1902 18.207 35.8968 18.0181 35.6521 17.7761C35.4121 17.5323 35.2276 17.241 35.1109 16.9217C34.9791 16.5794 34.9145 16.2158 34.9203 15.8499V11.96H36.1477V15.8499C36.146 16.0789 36.182 16.3067 36.2544 16.5245C36.3162 16.7129 36.4175 16.8865 36.5517 17.0341C36.6839 17.1774 36.8448 17.2922 37.0244 17.3714C37.2261 17.4479 37.4409 17.4861 37.6571 17.4838Z" fill="white"/>
<path id="Vector_17" d="M49.4883 18.4882H48.5278C48.4328 18.4931 48.3389 18.4668 48.261 18.4133C48.1979 18.3603 48.1483 18.2935 48.1161 18.2184L47.6206 16.8918H44.8761L44.3882 18.2184C44.3546 18.2906 44.3051 18.3545 44.2434 18.4058C44.1703 18.4637 44.078 18.4931 43.9842 18.4882H43.0312L45.6309 11.99H46.8887L49.4883 18.4882ZM47.308 16.0073L46.5457 13.8413C46.5076 13.7438 46.4618 13.6314 46.4237 13.504C46.3856 13.3766 46.3322 13.2267 46.2941 13.0768C46.256 13.2267 46.2102 13.3691 46.1721 13.504C46.1352 13.6211 46.0919 13.7362 46.0425 13.8488L45.2802 16.0073H47.308Z" fill="white"/>
<path id="Vector_18" d="M57.5314 18.4882H56.4184C56.3267 18.4964 56.2345 18.4781 56.1533 18.4355C56.072 18.3928 56.0052 18.3278 55.961 18.2484L54.5735 16.1648C54.5292 16.0969 54.4691 16.0404 54.3982 15.9999C54.3119 15.9622 54.2181 15.9443 54.1237 15.9474H53.5977V18.4882H52.3398V11.96H54.3601C54.7508 11.9532 55.1406 11.9986 55.5188 12.0949C55.7963 12.1712 56.0555 12.3012 56.2812 12.4772C56.48 12.6354 56.6369 12.8385 56.7386 13.0693C56.8368 13.3072 56.8861 13.562 56.8834 13.8188C56.8865 14.0302 56.853 14.2405 56.7843 14.4409C56.7228 14.6332 56.6273 14.8133 56.5023 14.973C56.3746 15.1369 56.22 15.2788 56.0449 15.3928C55.8529 15.5143 55.6452 15.6101 55.4274 15.6776C55.5058 15.7232 55.5798 15.7759 55.6484 15.835C55.715 15.9027 55.7761 15.9754 55.8314 16.0523L57.5314 18.4882ZM54.3677 15.0855C54.5722 15.0897 54.7759 15.0592 54.9699 14.9955C55.1268 14.9413 55.2698 14.8544 55.3892 14.7407C55.4975 14.6391 55.5831 14.5167 55.6408 14.3809C55.6944 14.2344 55.7203 14.0794 55.7171 13.9237C55.7246 13.7824 55.6989 13.6414 55.6421 13.5114C55.5852 13.3814 55.4987 13.266 55.3892 13.1742C55.0921 12.9746 54.7339 12.8819 54.3753 12.9119H53.613V15.0705L54.3677 15.0855Z" fill="white"/>
<path id="Vector_19" d="M66.1077 18.4882H65.1624C65.0674 18.4931 64.9735 18.4667 64.8955 18.4132C64.8325 18.3602 64.7829 18.2935 64.7507 18.2183L64.2552 16.8917H61.4878L60.9999 18.2183C60.9663 18.2905 60.9168 18.3545 60.8551 18.4057C60.782 18.4637 60.6897 18.493 60.5959 18.4882H59.6582L62.2502 11.96H63.5081L66.1077 18.4882ZM63.935 16.0373L63.1726 13.8712C63.1726 13.7738 63.0888 13.6613 63.0507 13.5339C63.0125 13.4065 62.9592 13.2566 62.9211 13.1067C62.9211 13.2566 62.8372 13.399 62.7991 13.5339C62.7622 13.651 62.7189 13.7661 62.6695 13.8787L61.9071 16.0373H63.935Z" fill="white"/>
<path id="Vector_20" d="M74.5706 11.96V18.4882H73.9379C73.8493 18.4825 73.7632 18.4568 73.6863 18.4132C73.6107 18.3767 73.5453 18.3227 73.4957 18.2558L70.0499 13.9162C70.0605 14.1009 70.0605 14.2861 70.0499 14.4708V18.4882H68.9902V11.96H69.7526C69.7852 11.9523 69.8191 11.9523 69.8517 11.96L69.9356 12.0199C69.9715 12.0499 70.0024 12.0853 70.027 12.1248L73.4957 16.472V16.1647C73.4957 16.0598 73.4957 15.9698 73.4957 15.8799V11.96H74.5706Z" fill="white"/>
<path id="Vector_21" d="M82.834 12.9493H80.8443V18.4882H79.6321V12.9493H77.6348V11.96H82.834V12.9493Z" fill="white"/>
<path id="Vector_22" d="M87.1569 12.9193V14.7406H89.4439V15.67H87.1569V17.5063H90.0919V18.4882H85.9219V11.96H90.0919V12.9193H87.1569Z" fill="white"/>
<path id="Vector_23" d="M94.612 12.9193V14.7406H96.899V15.67H94.612V17.5063H97.547V18.4882H93.377V11.96H97.547V12.9193H94.612Z" fill="white"/>
</g>
<defs>
<clipPath id="clip0_1_83639">
<rect width="98" height="19" fill="white" transform="translate(0.5 0.5)"/>
</clipPath>
</defs>
</svg>
