<svg width="48" height="48" viewBox="0 0 48 48" fill="none" xmlns="http://www.w3.org/2000/svg">
<path d="M42.0025 23.9718C42.0157 28.1304 40.5845 32.1623 37.9574 35.3673C37.5597 35.8433 37.1495 36.3227 36.7001 36.7716C34.1919 39.2786 31.0045 40.981 27.5392 41.6645C24.0738 42.348 20.4854 41.9821 17.2259 40.6128C13.9663 39.2435 11.1811 36.9321 9.22114 33.9695C7.26112 31.0069 6.21384 27.5256 6.21115 23.9639C6.20665 23.097 6.27278 22.2312 6.40891 21.3751C7.07699 16.8778 9.40337 12.8006 12.9229 9.95866C16.4425 7.11679 20.8958 5.7197 25.3924 6.04678C29.889 6.37385 34.0975 8.40097 37.1764 11.7228C40.2553 15.0446 41.9777 19.4164 41.9992 23.9639L42.0025 23.9718Z" fill="#97CC56"/>
<path opacity="0.2" fill-rule="evenodd" clip-rule="evenodd" d="M37.7444 35.0986C37.3466 35.5769 36.9365 36.0564 36.4904 36.5029C33.9821 39.0097 30.7945 40.712 27.3292 41.3955C23.8639 42.0788 20.2755 41.713 17.0159 40.3437C13.7563 38.9745 10.9711 36.6631 9.01096 33.7006C7.05079 30.7382 6.00328 27.257 6.00029 23.6952C5.99506 22.8282 6.06121 21.9624 6.19805 21.1064C6.22614 21.1064 6.22615 21.0781 6.25424 21.0781C9.54427 19.446 13.3658 18.1244 18.1087 21.0498C20.5369 22.5697 21.1201 26.1978 24.9146 27.4672C28.1507 28.5644 32.6677 26.9005 36.2949 31.6031C37.0926 32.6086 37.5948 33.8196 37.7444 35.0986Z" fill="white"/>
<path d="M16 24.0471L21.8823 29.9806L33.0996 18.6667" stroke="white" stroke-width="2" stroke-linecap="round" stroke-linejoin="round"/>
</svg>
