<svg width="115" height="41" viewBox="0 0 115 41" fill="none" xmlns="http://www.w3.org/2000/svg">
<g clip-path="url(#clip0_444_168)">
<path d="M57.9057 18.1958C57.9057 16.7131 57.4107 15.6423 56.5857 15.0658C55.7607 14.4892 54.6057 14.1597 53.1206 14.1597H48.748V27.9154H50.8931V22.3143H53.4506C54.8532 22.3143 55.9257 21.9848 56.7507 21.3258C57.4932 20.7492 57.9057 19.6784 57.9057 18.1958ZM55.6782 18.1958C55.6782 19.1842 55.4307 19.8432 55.0182 20.1727C54.6057 20.5022 53.9456 20.7492 53.2031 20.6669H50.8931V15.8071H53.1206C53.8631 15.8071 54.5232 15.8894 55.0182 16.2189C55.4307 16.5484 55.6782 17.2074 55.6782 18.1958Z" fill="white"/>
<path d="M72.674 27.9154L67.4764 14.1597H65.5789L59.9688 27.9154H62.1963L63.6813 24.044H68.9614L70.364 27.9154H72.674ZM68.3839 22.479H64.2588L66.4039 16.6308L68.3839 22.479Z" fill="white"/>
<path d="M84.8007 18.1958C84.8007 16.7131 84.3057 15.6423 83.4807 15.0658C82.6557 14.4892 81.5007 14.1597 80.0156 14.1597H75.5605V27.9154H77.7056V22.3143H80.2631C81.6657 22.3143 82.7382 21.9848 83.5632 21.3258C84.3882 20.7492 84.8007 19.6784 84.8007 18.1958ZM82.6557 18.1958C82.6557 19.1842 82.4082 19.8432 81.9957 20.1727C81.5832 20.5022 80.9232 20.7492 80.1806 20.6669H77.8706V15.8071H80.0981C80.8406 15.8071 81.5007 15.8894 81.9957 16.2189C82.3257 16.5484 82.5732 17.2074 82.6557 18.1958Z" fill="white"/>
<path d="M96.3513 27.9152V26.2678H90.3286V21.5727H95.6912V19.9254H90.3286V15.7245H96.1038V14.0771H88.1836V27.8329H96.3513V27.9152Z" fill="white"/>
<path d="M110.542 27.9153L106.005 21.9024C107.407 21.7376 108.315 21.3258 108.892 20.5845C109.47 19.8431 109.717 19.0194 109.717 18.031C109.635 16.5483 109.14 15.4775 108.232 14.9833C107.325 14.4067 106.252 14.1596 105.097 14.242H100.395V27.9977H102.54V22.0671H103.53L107.902 27.9977H110.542V27.9153ZM107.572 18.031C107.572 18.6899 107.407 19.2665 107.077 19.6784C106.747 20.0902 106.17 20.3373 105.345 20.3373H102.622V15.807H105.345C106.087 15.807 106.665 15.9717 107.077 16.3836C107.325 16.7954 107.572 17.2897 107.572 18.031Z" fill="white"/>
<path d="M20.0062 1.07764C30.7645 1.07764 39.4557 9.76516 39.4557 20.4719C39.4557 31.1787 30.7175 39.9132 20.0062 39.9132C9.24787 39.9132 0.556641 31.2257 0.556641 20.4719C0.556641 9.76516 9.29485 1.07764 20.0062 1.07764Z" fill="white"/>
<path d="M20.0055 40.4768C8.9653 40.4768 -0.0078125 31.5075 -0.0078125 20.472C-0.0078125 9.43648 8.9653 0.51416 20.0055 0.51416C31.0457 0.51416 40.0188 9.48344 40.0188 20.472C40.0657 31.5075 31.0927 40.4768 20.0055 40.4768ZM20.0055 1.64119C9.57603 1.64119 1.11971 10.0939 1.11971 20.5189C1.11971 30.944 9.62301 39.3967 20.0055 39.3967C30.4349 39.3967 38.8913 30.944 38.8913 20.5189C38.8913 10.0939 30.4349 1.64119 20.0055 1.64119Z" fill="#4191CC"/>
<path d="M18.0048 32.3162C14.7446 29.6882 12.7464 25.4832 12.799 21.2257C12.799 19.4912 13.1671 17.7567 13.9558 16.285C14.7446 14.8132 16.0592 13.5517 17.5841 12.9735C19.3194 12.2902 21.3176 12.5005 22.8951 13.4466C23.6839 13.9197 24.3674 14.603 24.8407 15.3914C25.314 16.1798 25.5769 17.1259 25.6295 18.0195C25.682 19.8066 24.8933 21.5411 23.5261 22.75C22.2115 23.9589 20.3711 24.5897 18.5306 24.6948C16.3747 24.7474 14.2187 23.9589 12.6938 22.5398C11.1163 21.068 10.2224 18.913 10.3275 16.8106C10.3801 15.6017 10.7482 14.4453 11.3792 13.4466C12.0102 12.3954 12.8516 11.5544 13.8506 10.8711C15.8488 9.55704 18.4255 9.13655 20.8443 9.55704C24.0519 10.1352 26.944 12.1326 28.5742 14.9709C26.9966 12.1326 24.1045 10.0301 20.8969 9.45194C18.478 9.03145 15.9014 9.39936 13.7981 10.7134C12.7464 11.3441 11.8525 12.2377 11.1689 13.2889C10.4853 14.3402 10.0646 15.5491 10.012 16.8106C9.85427 19.0707 10.7482 21.3309 12.3783 22.9077C14.0084 24.4845 16.2695 25.3255 18.5832 25.3255C20.5288 25.3255 22.4744 24.6422 23.9468 23.3282C25.4191 22.0141 26.3656 20.0694 26.313 18.072C26.313 17.0208 25.9975 15.9696 25.4717 15.0235C24.9459 14.0774 24.2097 13.2889 23.3158 12.7107C21.5279 11.5544 19.1616 11.3442 17.1634 12.08C15.323 12.7633 13.8507 14.1825 12.9041 15.8119C11.9576 17.4939 11.537 19.3861 11.4844 21.2783C11.3792 25.8512 13.4826 30.4766 17.0583 33.3675L18.0048 32.3162Z" fill="#4191CC"/>
<path d="M17.2681 33.6828L17.0577 33.5251C13.6398 30.7393 11.4838 26.4293 11.3787 21.9615C10.2744 20.4373 9.69599 18.545 9.85374 16.7054C9.95891 15.4439 10.3796 14.1824 11.0632 13.0786C11.7468 12.0274 12.6933 11.0813 13.7975 10.398C15.3225 9.39932 17.1629 8.92627 19.1085 8.92627C19.7921 8.92627 20.4231 8.97882 21.1067 9.08395C24.4195 9.71469 27.3642 11.8171 28.9943 14.7606L28.521 15.0234C26.9435 12.2376 24.1566 10.2929 21.0015 9.71469C20.4231 9.60957 19.8447 9.55698 19.2663 9.55698C17.4258 9.55698 15.638 10.03 14.2182 10.9762C13.2191 11.6069 12.4303 12.5004 11.7993 13.4466C11.2209 14.4452 10.8528 15.549 10.8002 16.7054C10.7477 17.8092 10.958 19.0181 11.4838 20.0693C11.6416 18.3873 12.1148 16.8631 12.851 15.549C13.9027 13.7094 15.4276 12.3427 17.2681 11.6594C18.0568 11.3441 18.8982 11.1864 19.7921 11.1864C21.2119 11.1864 22.5265 11.5543 23.6833 12.2902C24.6298 12.9209 25.4186 13.7094 25.9444 14.708C26.4703 15.6542 26.7858 16.7579 26.7858 17.8617C26.8383 19.8591 25.8918 21.909 24.3143 23.3281C22.842 24.5896 20.8438 25.378 18.7404 25.378H18.6353C16.7948 25.378 14.9018 24.7998 13.4294 23.7486C14.0079 26.9549 15.7957 29.8983 18.3197 31.9482L18.5301 32.1059L17.2681 33.6828ZM11.9571 22.6974C12.2726 26.6395 14.1656 30.3714 17.1629 32.8943L17.6362 32.3162C14.9544 30.1086 13.1665 26.8498 12.6933 23.3807C12.5355 23.2756 12.4303 23.1705 12.3252 23.0128C12.1674 22.9076 12.0623 22.8025 11.9571 22.6974ZM19.7921 12.2376C21.0015 12.2376 22.1058 12.553 23.1049 13.1312C23.9462 13.6568 24.6298 14.3401 25.1557 15.1811C25.6815 16.0221 25.9444 16.9682 25.997 17.9668C26.0496 19.7539 25.2608 21.6462 23.8411 22.9076C22.6842 23.9589 21.1067 24.6422 19.4766 24.8524C21.1593 24.6947 22.7368 24.0114 23.8936 22.9602C25.366 21.6462 26.2073 19.8065 26.2073 17.9143C26.2073 16.9156 25.9444 15.9169 25.4186 15.0234C24.9453 14.1299 24.2092 13.394 23.3678 12.8158C22.3161 12.1325 21.1067 11.8172 19.7921 11.8172C19.0033 11.8172 18.2146 11.9748 17.4784 12.2376C15.7957 12.8684 14.3234 14.1298 13.3769 15.8644C12.5355 17.3361 12.1148 19.0706 12.0097 20.9629C12.22 21.2257 12.4304 21.5411 12.6407 21.8039C12.6407 21.5936 12.6407 21.3833 12.6407 21.2257C12.6407 19.3334 13.0614 17.5989 13.8501 16.1798C14.744 14.5504 16.0586 13.3414 17.6362 12.7107C18.2672 12.3953 19.0033 12.2376 19.7921 12.2376ZM13.1139 22.4346C14.5863 23.7486 16.5845 24.4845 18.6353 24.4319C20.4231 24.3794 22.211 23.6961 23.4204 22.5923C24.735 21.3834 25.4712 19.7014 25.4186 18.072C25.366 17.1784 25.1031 16.3374 24.6824 15.549C24.2092 14.8132 23.5781 14.1299 22.842 13.7094C21.948 13.1837 20.949 12.8684 19.8447 12.8684C19.1085 12.8684 18.4249 12.9735 17.7939 13.2363C16.3741 13.7619 15.1121 14.9708 14.3234 16.4426C13.5872 17.8092 13.2191 19.4386 13.1665 21.2782C13.1139 21.6462 13.1139 22.0141 13.1139 22.4346Z" fill="#4191CC"/>
<path d="M35.8078 15.5865L29.9184 16.848L28.709 14.2725L35.8078 15.5865Z" fill="#A2CA5E"/>
<path d="M28.6041 14.3252L27.4473 16.3226L29.3929 16.0072L28.6041 14.3252Z" fill="#A2CA5E"/>
<path d="M28.5514 14.0623L27.3945 12.2227L35.808 15.5341L28.5514 14.0623Z" fill="#A2CA5E"/>
<path d="M11.5958 21.3641C11.9247 21.8806 12.2535 22.4911 12.9112 22.7728L12.8173 22.1154C12.3945 21.5989 12.1596 21.411 11.8777 21.0354C11.8307 20.9414 11.5488 20.6597 11.5488 20.6597C11.5488 20.8475 11.5958 21.1293 11.5958 21.3641Z" fill="#4191CC"/>
</g>
<defs>
<clipPath id="clip0_444_168">
<rect width="114.515" height="39.9611" fill="white" transform="translate(0 0.519531)"/>
</clipPath>
</defs>
</svg>
