<svg width="15" height="15" viewBox="0 0 15 15" fill="none" xmlns="http://www.w3.org/2000/svg">
<g id="phone-icon 1" clip-path="url(#clip0_1_83548)">
<g id="g8">
<path id="path4" d="M0.688882 3.85321C0.551268 3.16514 0.413653 2.61468 0.413653 1.9266C0.276038 1.10092 0.826497 0.412842 1.65219 0.412842H1.7898H3.99163C4.67971 0.412842 5.36778 0.963301 5.36778 1.65137C5.5054 2.33945 5.64301 3.02752 5.91824 3.71559C6.05586 4.12844 5.91824 4.6789 5.5054 5.09174L4.67971 6.05504C5.64301 7.84403 7.15677 9.3578 8.94576 10.3211L9.90907 9.3578C10.3219 8.94495 10.8724 8.80734 11.4228 9.08257C12.1109 9.3578 12.799 9.49541 13.487 9.63303C14.1751 9.77064 14.7256 10.3211 14.7256 11.1468V13.3486C14.7256 13.4862 14.7256 13.6239 14.588 13.7615C14.4504 14.3119 13.8999 14.7248 13.2118 14.7248H13.0742C10.8724 14.4495 8.80815 13.6239 6.88154 12.5229C6.4687 12.1101 5.91824 11.8349 5.5054 11.5596C4.40448 10.5963 3.44118 9.49541 2.61549 8.11926C2.20264 7.70642 1.92741 7.15596 1.65219 6.6055" stroke="white" stroke-width="0.5" stroke-miterlimit="10" stroke-linecap="round" stroke-linejoin="round"/>
<path id="path6" opacity="0.3" fill-rule="evenodd" clip-rule="evenodd" d="M14.5884 13.7615C14.4508 14.312 13.9004 14.7248 13.2123 14.7248H13.0747C10.8728 14.4496 8.80861 13.6239 6.88201 12.523C6.46916 12.1101 5.9187 11.8349 5.50586 11.5597C6.05632 11.4221 6.46916 11.4221 6.88201 11.5597C7.84531 11.8349 8.80861 12.1101 9.35907 11.9725C10.5976 11.8349 11.4233 10.734 13.2123 11.6973C13.9004 12.1101 14.4508 12.7982 14.5884 13.7615Z" fill="white"/>
</g>
</g>
<defs>
<clipPath id="clip0_1_83548">
<rect width="15" height="15" fill="white"/>
</clipPath>
</defs>
</svg>
