<svg width="25" height="25" viewBox="0 0 25 25" fill="none" xmlns="http://www.w3.org/2000/svg">
<g id="instagram-icon">
<g id="Group">
<g id="Group_2">
<g id="Group_3">
<g id="Group_4">
<g id="Clip path group">
<mask id="mask0_1_83731" style="mask-type:luminance" maskUnits="userSpaceOnUse" x="0" y="0" width="25" height="25">
<g id="SVGID_2_">
<path id="Vector" d="M25 0H0V25H25V0Z" fill="white"/>
</g>
</mask>
<g mask="url(#mask0_1_83731)">
<g id="Group_5">
<g id="Clip path group_2">
<mask id="mask1_1_83731" style="mask-type:luminance" maskUnits="userSpaceOnUse" x="0" y="0" width="25" height="25">
<g id="SVGID_4_">
<path id="Vector_2" d="M25 0H0V25H25V0Z" fill="white"/>
</g>
</mask>
<g mask="url(#mask1_1_83731)">
<path id="Vector_3" d="M12.5019 24.5471C19.154 24.5471 24.5467 19.1544 24.5467 12.5022C24.5467 5.85005 19.154 0.457397 12.5019 0.457397C5.84969 0.457397 0.457031 5.85005 0.457031 12.5022C0.457031 19.1544 5.84969 24.5471 12.5019 24.5471Z" stroke="white" stroke-miterlimit="10"/>
</g>
</g>
<g id="Clip path group_3">
<mask id="mask2_1_83731" style="mask-type:luminance" maskUnits="userSpaceOnUse" x="0" y="0" width="25" height="25">
<g id="SVGID_4__2">
<path id="Vector_4" d="M25 0H0V25H25V0Z" fill="white"/>
</g>
</mask>
<g mask="url(#mask2_1_83731)">
<path id="Vector_5" d="M12.5014 10.5809C11.4447 10.5809 10.5801 11.441 10.5801 12.5023C10.5801 13.5635 11.4401 14.4236 12.5014 14.4236C13.5581 14.4236 14.4227 13.5635 14.4227 12.5023C14.4181 11.441 13.5581 10.5809 12.5014 10.5809Z" fill="white"/>
</g>
</g>
<g id="Clip path group_4">
<mask id="mask3_1_83731" style="mask-type:luminance" maskUnits="userSpaceOnUse" x="0" y="0" width="25" height="25">
<g id="SVGID_4__3">
<path id="Vector_6" d="M25 0H0V25H25V0Z" fill="white"/>
</g>
</mask>
<g mask="url(#mask3_1_83731)">
<path id="Vector_7" d="M16.9388 6.5553H8.0641C7.06684 6.5553 6.26172 7.36042 6.26172 8.35768V16.6468C6.26172 17.644 7.07142 18.4492 8.0641 18.4492H16.9388C17.936 18.4492 18.7411 17.644 18.7411 16.6468V8.35768C18.7411 7.36042 17.936 6.5553 16.9388 6.5553ZM14.6195 14.9451C11.3624 17.2095 7.78962 13.6322 10.0586 10.3796C10.1455 10.2561 10.2553 10.1463 10.3788 10.0594C13.6313 7.79958 17.2087 11.3723 14.9397 14.6248C14.8573 14.7483 14.743 14.8581 14.6195 14.9451ZM16.7512 9.27716C16.399 9.27716 16.1108 8.98897 16.1108 8.63672C16.1108 8.28448 16.399 7.99629 16.7512 7.99629C17.1034 7.99629 17.3916 8.28448 17.3916 8.63672C17.3916 8.98897 17.1034 9.27716 16.7512 9.27716Z" fill="white"/>
</g>
</g>
</g>
</g>
</g>
</g>
</g>
</g>
</g>
</g>
</svg>
