<svg width="25" height="25" viewBox="0 0 25 25" fill="none" xmlns="http://www.w3.org/2000/svg">
<g id="linkedin-icon">
<g id="Group">
<g id="Group_2">
<g id="Group_3">
<g id="Group_4">
<g id="Clip path group">
<mask id="mask0_1_83706" style="mask-type:luminance" maskUnits="userSpaceOnUse" x="0" y="0" width="25" height="25">
<g id="SVGID_2_">
<path id="Vector" d="M25 0H0V25H25V0Z" fill="white"/>
</g>
</mask>
<g mask="url(#mask0_1_83706)">
<g id="Group_5">
<g id="Clip path group_2">
<mask id="mask1_1_83706" style="mask-type:luminance" maskUnits="userSpaceOnUse" x="0" y="0" width="25" height="25">
<g id="SVGID_4_">
<path id="Vector_2" d="M25 0H0V25H25V0Z" fill="white"/>
</g>
</mask>
<g mask="url(#mask1_1_83706)">
<path id="Vector_3" d="M12.5019 24.5471C19.154 24.5471 24.5467 19.1544 24.5467 12.5022C24.5467 5.85005 19.154 0.457397 12.5019 0.457397C5.84969 0.457397 0.457031 5.85005 0.457031 12.5022C0.457031 19.1544 5.84969 24.5471 12.5019 24.5471Z" stroke="white" stroke-miterlimit="10"/>
</g>
</g>
<g id="Clip path group_3">
<mask id="mask2_1_83706" style="mask-type:luminance" maskUnits="userSpaceOnUse" x="0" y="0" width="25" height="25">
<g id="SVGID_4__2">
<path id="Vector_4" d="M25 0H0V25H25V0Z" fill="white"/>
</g>
</mask>
<g mask="url(#mask2_1_83706)">
<path id="Vector_5" d="M9.31906 10.517H6.54688V18.4447H9.31906V10.517Z" fill="white"/>
</g>
</g>
<g id="Clip path group_4">
<mask id="mask3_1_83706" style="mask-type:luminance" maskUnits="userSpaceOnUse" x="0" y="0" width="25" height="25">
<g id="SVGID_4__3">
<path id="Vector_6" d="M25 0H0V25H25V0Z" fill="white"/>
</g>
</mask>
<g mask="url(#mask3_1_83706)">
<path id="Vector_7" d="M7.64488 9.30004C7.1188 9.19482 6.69337 8.77396 6.579 8.25246C6.3823 7.35127 7.06391 6.5553 7.93307 6.5553C8.7016 6.5553 9.31917 7.17744 9.31917 7.94139C9.31917 8.80141 8.53692 9.47845 7.64488 9.30004Z" fill="white"/>
</g>
</g>
<g id="Clip path group_5">
<mask id="mask4_1_83706" style="mask-type:luminance" maskUnits="userSpaceOnUse" x="0" y="0" width="25" height="25">
<g id="SVGID_4__4">
<path id="Vector_8" d="M25 0H0V25H25V0Z" fill="white"/>
</g>
</mask>
<g mask="url(#mask4_1_83706)">
<path id="Vector_9" d="M18.436 18.4493H16.0572V14.3642C16.0572 13.4401 15.9566 12.4795 14.694 12.4795C13.4131 12.4795 13.2164 13.2617 13.2164 14.2956V18.4447H10.9062V10.517H13.1524V11.3678C13.4817 10.7411 14.0536 10.517 15.4854 10.517C17.5073 10.517 18.253 11.4593 18.4406 12.9506C18.4817 13.3029 18.436 18.4493 18.436 18.4493Z" fill="white"/>
</g>
</g>
</g>
</g>
</g>
</g>
</g>
</g>
</g>
</g>
</svg>
